# Blender 3.3.1
# www.blender.org
mtllib box.mtl
o Cube
v -0.130257 -0.223836 30.116156
v -0.130257 42.038357 30.116156
v -0.130257 -0.223836 -0.377710
v -0.130257 42.038357 -0.377710
v 90.142197 -0.223836 30.116156
v 90.142197 42.038357 30.116156
v 90.142197 -0.223836 -0.377710
v 90.142197 42.038357 -0.377710
v 7.724316 51.512535 3.565933
vn -1.0000 -0.0000 -0.0000
vn -0.0000 -0.0000 -1.0000
vn -0.0000 -1.0000 -0.0000
vn -0.0000 1.0000 -0.0000
vt 0.375000 0.000000
vt 0.125000 0.750000
vt 0.625000 0.000000
vt 0.875000 0.750000
vt 0.375000 0.250000
vt 0.125000 0.500000
vt 0.625000 0.250000
vt 0.875000 0.500000
vt 0.375000 0.750000
vt 0.625000 0.750000
vt 0.375000 0.500000
vt 0.625000 0.500000
s 0
usemtl Material.003
f 1/1/1 2/3/1 4/7/1 3/5/1
f 3/5/2 4/7/2 8/12/2 7/11/2
f 3/6/3 7/11/3 5/9/3 1/2/3
f 8/12/4 4/8/4 2/4/4 6/10/4
